#!OML:ASF Y:\EmotionMaleHayes\Project 1\Capture day 1\Session 1\Male1.ASF
:FULLY-SPECIFIED
:DEGREES
142
root -11.6559 16.8883 0.757802 281.627 84.0403 277.674
lowerback 14.4344 1.92924 2.98718
upperback 6.79462 3.38956 3.31019
thorax -0.948747 1.86524 1.2659
lowerneck -24.3834 0.0216495 3.32102
upperneck 28.9782 0.495688 -4.2534
head 13.9784 0.0977794 -2.15358
rclavicle -3.97569e-016 7.95139e-015
rhumerus -28.4072 7.7055 -83.5801
rradius 46.8697
rwrist -11.6558
rhand -22.9427 -30.7361
rfingers 7.12502
rthumb 3.49847 -60.6871
lclavicle -3.97569e-016 7.95139e-015
lhumerus -37.1143 -19.1774 95.4543
lradius 38.3175
lwrist 12.7925
lhand -28.5569 -21.653
lfingers 7.12502
lthumb -1.92375 8.31807
rfemur 0.129915 1.75008 28.4424
rtibia 16.3973
rfoot -22.684 -3.98159
rtoes -2.31809
lfemur -28.8651 9.59558 -11.5241
ltibia 60.9689
lfoot -10.4267 5.36381
ltoes -16.3794
143
root -11.404 16.8953 0.75224 282.573 83.6882 278.725
lowerback 14.0568 2.0651 3.24568
upperback 6.99365 3.58123 3.30309
thorax -0.522012 1.97587 1.11051
lowerneck -24.358 -0.0933514 3.34529
upperneck 28.8908 0.345751 -4.34298
head 13.9276 0.0220093 -2.21962
rclavicle 1.80894e-014 2.46493e-014
rhumerus -26.8676 8.87547 -84.4338
rradius 47.5641
rwrist -12.1255
rhand -22.877 -30.1336
rfingers 7.12502
rthumb 3.56189 -60.0835
lclavicle 1.80894e-014 2.46493e-014
lhumerus -38.3816 -17.2228 95.0443
lradius 38.4216
lwrist 15.3464
lhand -28.607 -20.6701
lfingers 7.12502
lthumb -1.97213 9.30053
rfemur 2.07326 1.60488 28.824
rtibia 14.8152
rfoot -22.4834 -3.82426
rtoes -1.84377
lfemur -30.0569 9.49034 -10.9875
ltibia 58.4089
lfoot -11.6527 5.80964
ltoes -18.7005
144
root -11.155 16.8916 0.747717 284.055 83.3388 280.241
lowerback 14.5575 2.29415 3.82558
upperback 6.53714 3.96678 2.98917
thorax -1.2051 2.1591 0.364243
lowerneck -24.0158 -0.310498 3.61934
upperneck 29.167 -0.0758485 -4.2368
head 13.9507 -0.0994862 -2.3029
rclavicle -3.33958e-014 -6.04305e-014
rhumerus -26.3877 9.37319 -85.6186
rradius 48.7522
rwrist -11.9812
rhand -22.0193 -30.3387
rfingers 7.12502
rthumb 4.39015 -60.2732
lclavicle -3.33958e-014 -6.04305e-014
lhumerus -40.7436 -15.8859 94.4896
lradius 38.96
lwrist 17.8048
lhand -28.5279 -19.5084
lfingers 7.12502
lthumb -1.89577 10.4629
rfemur 3.80954 1.43817 29.1452
rtibia 13.449
rfoot -22.4349 -3.42136
rtoes -0.561298
lfemur -31.2064 9.38729 -10.4275
ltibia 55.6122
lfoot -12.0399 6.77105
ltoes -19.142
145
root -10.9058 16.8745 0.737813 287.3 83.0761 283.456
lowerback 14.3341 2.48694 4.06074
upperback 6.5346 4.2233 2.77077
thorax -1.04929 2.29303 -0.0183645
lowerneck -23.9282 -0.382652 3.75218
upperneck 29.1486 -0.233674 -4.22789
head 13.9151 -0.149981 -2.34935
rclavicle -2.38542e-014 1.90833e-014
rhumerus -24.9741 10.4008 -86.5
rradius 49.6404
rwrist -11.6362
rhand -21.1479 -30.1055
rfingers 7.12502
rthumb 5.23155 -60.0209
lclavicle -2.38542e-014 1.90833e-014
lhumerus -42.5797 -14.2984 93.8045
lradius 39.767
lwrist 19.7472
lhand -28.604 -18.4246
lfingers 7.12502
lthumb -1.9693 11.5461
rfemur 5.4442 1.05671 29.1339
rtibia 12.1326
rfoot -22.4054 -2.65953
rtoes 0.270755
lfemur -32.2279 9.40326 -10.0304
ltibia 52.5935
lfoot -12.3521 7.99173
ltoes -19.7652
146
root -10.6529 16.849 0.721937 291.184 82.8852 287.312
lowerback 14.1886 2.68068 4.21798
upperback 6.47487 4.47251 2.5003
thorax -0.99287 2.41887 -0.415061
lowerneck -23.8948 -0.430042 3.78916
upperneck 29.201 -0.335427 -4.15762
head 13.9251 -0.177382 -2.3467
rclavicle -3.27001e-014 1.74931e-014
rhumerus -23.8788 11.9097 -87.3853
rradius 50.7355
rwrist -12.1218
rhand -21.2252 -29.2358
rfingers 7.12502
rthumb 5.15689 -59.153
lclavicle -3.27001e-014 1.74931e-014
lhumerus -44.7129 -13.0443 93.2023
lradius 40.801
lwrist 21.3487
lhand -28.9899 -18.3976
lfingers 7.12502
lthumb -2.34191 11.5693
rfemur 7.10522 0.182043 28.7246
rtibia 10.7767
rfoot -22.2089 -1.65929
rtoes -0.205354
lfemur -32.9839 9.37212 -9.7357
ltibia 49.2424
lfoot -12.5927 8.86067
ltoes -18.9242
147
root -10.395 16.8174 0.703253 294.679 82.6393 290.812
lowerback 14.0303 2.90616 4.48862
upperback 6.39003 4.77645 2.20409
thorax -0.937355 2.57378 -0.906777
lowerneck -23.6387 -0.580998 3.68851
upperneck 29.1621 -0.585349 -3.90664
head 13.8424 -0.257372 -2.26912
rclavicle -1.69961e-014 5.76476e-015
rhumerus -23.2311 13.3811 -88.1985
rradius 52.4243
rwrist -12.7938
rhand -21.5567 -28.4252
rfingers 7.12502
rthumb 4.83678 -58.35
lclavicle -1.69961e-014 5.76476e-015
lhumerus -46.885 -12.3315 92.7004
lradius 41.7267
lwrist 22.8554
lhand -29.248 -19.1529
lfingers 7.12502
lthumb -2.59119 10.8111
rfemur 8.76761 -0.806399 28.2285
rtibia 9.52464
rfoot -22.013 -0.541538
rtoes -0.0815705
lfemur -33.4511 9.29234 -9.33922
ltibia 45.6838
lfoot -12.5323 9.32531
ltoes -18.7706
148
root -10.1349 16.7755 0.686211 298.069 82.3555 294.193
lowerback 13.6626 3.15793 4.67236
upperback 6.39895 5.0928 1.9464
thorax -0.675588 2.74087 -1.29002
lowerneck -23.3843 -0.760492 3.53644
upperneck 29.0836 -0.879709 -3.59449
head 13.7434 -0.355311 -2.1655
rclavicle -3.90612e-014 -5.54609e-014
rhumerus -22.5169 14.8493 -88.8215
rradius 54.2193
rwrist -13.3808
rhand -21.8904 -27.8602
rfingers 7.12502
rthumb 4.51457 -57.7921
lclavicle -3.90612e-014 -5.54609e-014
lhumerus -48.8364 -11.9152 92.2602
lradius 42.5567
lwrist 23.9712
lhand -29.2957 -19.3826
lfingers 7.12502
lthumb -2.63726 10.5808
rfemur 10.3002 -1.67967 27.691
rtibia 8.57098
rfoot -22.0993 0.814189
rtoes 1.58463
lfemur -33.7162 9.18023 -8.83623
ltibia 41.9747
lfoot -12.271 9.58556
ltoes -21.0102
149
root -9.87425 16.7262 0.672639 301.095 82.0698 297.189
lowerback 13.1451 3.38712 4.69909
upperback 6.51212 5.3548 1.73733
thorax -0.241942 2.88568 -1.50801
lowerneck -23.3472 -0.880237 3.38575
upperneck 29.0368 -1.12698 -3.20521
head 13.7088 -0.424347 -2.02727
rclavicle 5.12367e-014 -2.70347e-014
rhumerus -21.693 16.5067 -89.2635
rradius 56.1603
rwrist -14.0633
rhand -21.9438 -28.183
rfingers 7.12502
rthumb 4.46301 -58.1159
lclavicle 5.12367e-014 -2.70347e-014
lhumerus -50.3746 -11.5797 91.7928
lradius 43.1255
lwrist 24.4411
lhand -29.2625 -19.594
lfingers 7.12502
lthumb -2.60518 10.3699
rfemur 11.7447 -2.33608 27.1706
rtibia 7.74107
rfoot -22.1838 2.10873
rtoes 3.2218
lfemur -33.8841 9.00803 -8.24242
ltibia 38.2785
lfoot -12.054 9.54937
ltoes -21.0478
150
root -9.61146 16.6747 0.657795 302.866 81.6837 298.926
lowerback 13.4601 3.64123 5.18884
upperback 6.10212 5.74962 1.37913
thorax -0.728685 3.06817 -2.24083
lowerneck -23.2477 -1.13572 3.10485
upperneck 29.3455 -1.60921 -2.47125
head 13.8111 -0.5464 -1.77698
rclavicle 3.66012e-014 -2.95195e-014
rhumerus -21.8454 17.5065 -89.9884
rradius 58.5085
rwrist -14.1794
rhand -21.9002 -28.872
rfingers 7.12502
rthumb 4.50515 -58.8041
lclavicle 3.66012e-014 -2.95195e-014
lhumerus -52.4587 -11.9996 91.4108
lradius 43.5651
lwrist 24.63
lhand -29.0542 -20.1136
lfingers 7.12502
lthumb -2.40406 9.85259
rfemur 13.1021 -2.75072 26.8931
rtibia 6.98099
rfoot -22.1201 3.08498
rtoes 2.58278
lfemur -34.0489 8.6837 -7.44499
ltibia 34.8839
lfoot -11.628 9.22468
ltoes -20.6622
151
root -9.34316 16.6194 0.640102 303.602 81.3014 299.643
lowerback 12.6986 3.78352 5.37991
upperback 6.41868 5.90987 1.39049
thorax 0.0438287 3.18357 -2.26873
lowerneck -23.377 -1.22473 2.69132
upperneck 29.0988 -1.70494 -2.14927
head 13.7387 -0.597948 -1.59362
rclavicle -3.1818e-014 1.20016e-014
rhumerus -21.0008 19.2707 -89.8806
rradius 60.8553
rwrist -14.2845
rhand -22.6985 -28.8166
rfingers 7.12502
rthumb 3.73425 -58.7636
lclavicle -3.1818e-014 1.20016e-014
lhumerus -53.344 -11.8673 91.2105
lradius 43.8423
lwrist 24.4668
lhand -28.6931 -20.1105
lfingers 7.12502
lthumb -2.05527 9.85931
rfemur 14.3076 -3.10634 26.6856
rtibia 6.63163
rfoot -22.2864 3.91975
rtoes 0.297831
lfemur -34.2147 8.07588 -6.58101
ltibia 32.0284
lfoot -11.3101 8.12562
ltoes -22.5444
152
root -9.07203 16.5576 0.620003 305.137 81.0644 301.143
lowerback 11.9719 3.92409 5.37259
upperback 6.64571 6.04258 1.30288
thorax 0.692962 3.27453 -2.29059
lowerneck -23.3439 -1.27997 2.55043
upperneck 28.8587 -1.77535 -2.04545
head 13.6305 -0.636937 -1.53717
rclavicle -3.38784e-014 -2.74261e-015
rhumerus -20.4284 21.2138 -89.7987
rradius 63.3081
rwrist -14.6533
rhand -24.0426 -28.8609
rfingers 7.12502
rthumb 2.43626 -58.8267
lclavicle -3.38784e-014 -2.74261e-015
lhumerus -54.1177 -11.701 90.8513
lradius 43.9849
lwrist 24.0805
lhand -28.24 -19.6151
lfingers 7.12502
lthumb -1.61772 10.3586
rfemur 15.2365 -2.80358 26.5168
rtibia 6.89916
rfoot -22.8049 4.19568
rtoes -1.24795
lfemur -34.4155 7.50883 -6.01767
ltibia 29.8709
lfoot -11.4934 7.23055
ltoes -25.5858
